<?xml version="1.0" standalone="no"?>
<!DOCTYPE svg PUBLIC "-//W3C//DTD SVG 20010904//EN"
 "http://www.w3.org/TR/2001/REC-SVG-20010904/DTD/svg10.dtd">
<svg version="1.0" xmlns="http://www.w3.org/2000/svg"
 width="50.000000pt" height="300.000000pt" viewBox="0 0 300.000000 300.000000"
 preserveAspectRatio="xMidYMid meet">
<metadata>
Created by potrace 1.10, written by Peter Selinger 2001-2011
</metadata>
<g transform="translate(0.000000,300.000000) scale(0.100000,-0.100000)"
fill="#000000" stroke="none">
<path d="M617 2383 c-32 -36 -39 -83 -41 -264 -1 -59 3 -72 36 -125 35 -57 36
-59 15 -62 -12 -2 -30 -11 -39 -19 -16 -14 -16 -18 -3 -44 8 -15 27 -40 41
-56 29 -31 29 -35 -7 -158 -20 -69 -23 -103 -23 -245 0 -155 2 -170 28 -250
57 -172 132 -296 242 -403 122 -118 248 -189 414 -234 79 -21 328 -26 411 -8
273 59 506 241 634 494 48 96 62 140 80 261 17 107 18 196 4 275 -12 60 -11
64 15 97 31 41 33 72 6 84 -19 9 -18 11 13 44 51 55 87 105 87 123 0 28 -13
20 -55 -34 -22 -27 -64 -68 -93 -91 -42 -33 -51 -45 -46 -62 9 -30 12 -31 42
-19 62 25 65 23 23 -15 -31 -28 -42 -45 -37 -57 3 -9 11 -58 16 -108 49 -430
-242 -845 -667 -953 -134 -34 -302 -34 -435 0 -161 41 -308 127 -423 247 l-60
63 71 -66 c40 -36 93 -80 119 -98 64 -44 197 -105 271 -124 95 -25 99 -18 6
10 -291 86 -511 301 -602 589 -34 108 -39 320 -11 438 11 48 29 105 40 126
l18 39 -58 64 c-33 34 -56 64 -51 66 5 1 39 -11 76 -28 63 -29 69 -30 81 -14
11 15 5 24 -46 71 -64 60 -105 133 -114 203 l-6 45 32 -60 c33 -64 98 -149
106 -141 3 2 -9 22 -26 43 -53 66 -74 128 -79 229 -5 112 9 151 27 78 13 -52
89 -203 122 -244 17 -20 20 -21 14 -5 -3 10 -8 40 -11 65 -6 43 -4 42 41 -49
l47 -94 21 21 c18 18 21 35 23 104 1 46 9 105 18 133 8 27 14 51 12 53 -12 11
-49 -68 -60 -128 -8 -39 -16 -73 -19 -76 -3 -3 -18 14 -34 38 -19 29 -37 44
-54 46 -22 3 -32 16 -64 87 -20 46 -45 91 -54 99 -16 15 -19 15 -34 -1z"/>
<path d="M2458 2373 c-8 -10 -32 -53 -52 -95 -31 -66 -40 -78 -62 -78 -18 0
-32 -12 -55 -47 -16 -27 -32 -46 -36 -43 -3 3 -8 32 -10 64 -4 56 -31 127 -53
141 -13 8 -13 -1 5 -59 19 -62 19 -146 1 -216 -16 -61 -6 -101 19 -80 26 21
78 111 101 173 22 60 23 61 23 25 1 -20 -4 -49 -9 -64 -41 -106 79 92 127 210
29 73 32 77 39 52 11 -45 -2 -166 -25 -226 -11 -30 -35 -75 -53 -100 -24 -34
-26 -40 -9 -25 32 27 79 97 97 143 l14 37 -5 -45 c-13 -97 -77 -193 -171 -253
-109 -69 -71 -74 83 -10 77 32 104 53 69 53 -26 0 -27 19 -3 57 46 73 50 98
42 262 -5 123 -36 171 -77 124z"/>
<path d="M1320 2315 c-81 -17 -177 -52 -266 -99 -76 -41 -83 -38 -85 29 0 22
-4 49 -8 60 -12 30 -25 -63 -18 -131 8 -74 12 -78 55 -47 49 36 64 51 29 29
-16 -10 -31 -15 -34 -13 -8 9 77 58 158 93 308 130 680 72 919 -143 l58 -53
20 48 c25 60 34 124 26 178 -8 58 -21 47 -29 -24 -6 -61 -23 -132 -31 -132 -2
0 -39 24 -82 54 -109 76 -203 118 -343 152 -50 13 -305 12 -369 -1z"/>
<path d="M1355 2216 c-84 -17 -152 -39 -220 -74 -74 -37 -145 -85 -145 -98 0
-13 69 -77 160 -149 91 -71 101 -75 50 -19 -25 27 -56 71 -69 97 -16 33 -27
45 -34 38 -13 -13 -47 4 -47 24 0 35 145 112 274 145 107 27 241 27 349 -1 86
-22 242 -96 273 -130 17 -19 16 -21 -27 -65 -24 -25 -69 -65 -99 -89 l-55 -42
-26 26 c-18 18 -49 32 -100 44 -119 28 -114 28 -155 -7 l-37 -32 18 -31 c17
-30 17 -31 -8 -73 l-25 -42 -18 28 c-31 50 -280 281 -291 270 -12 -12 68 -104
132 -154 79 -61 137 -131 137 -164 -1 -13 -4 -46 -8 -75 -7 -59 -1 -95 22
-117 25 -26 29 -19 30 47 0 75 23 146 67 212 l34 49 -30 21 c-44 29 -47 46 -6
35 36 -11 49 -6 31 12 -20 20 -13 30 10 14 12 -9 32 -16 45 -16 12 0 34 -5 50
-12 15 -6 33 -10 39 -9 7 1 25 -4 40 -10 l29 -12 -44 -8 c-50 -10 -93 -45
-122 -101 -41 -81 -16 -158 85 -256 81 -79 100 -118 101 -202 0 -54 4 -68 22
-83 37 -30 66 -104 66 -169 0 -51 2 -57 15 -45 22 23 17 113 -9 169 -12 27
-26 48 -31 48 -4 0 -8 7 -8 15 0 18 -2 18 46 2 22 -7 45 -12 52 -11 6 1 23 2
36 3 14 0 37 12 53 25 15 13 39 27 53 31 14 4 36 17 50 30 14 12 47 30 73 40
26 10 50 22 53 27 14 22 20 -6 13 -57 -23 -173 -120 -347 -258 -461 -262 -217
-637 -238 -919 -50 -150 99 -263 258 -312 436 -29 106 -27 350 3 350 21 0 76
-51 71 -65 -4 -9 10 -31 35 -56 23 -23 41 -48 41 -55 0 -11 18 -14 78 -14 65
0 184 19 197 31 2 2 -40 4 -93 4 -85 0 -103 3 -147 26 -28 15 -61 37 -75 48
l-25 22 45 -7 c58 -9 179 -8 207 3 14 5 -6 8 -60 9 -100 1 -166 24 -252 89
-33 25 -60 45 -60 45 0 0 0 -15 -1 -32 0 -18 -6 -69 -13 -113 -53 -330 138
-673 456 -816 115 -53 221 -72 363 -66 143 5 219 25 340 88 183 94 313 248
381 449 27 80 33 114 37 218 2 67 2 122 -1 122 -4 0 -28 -14 -54 -30 -70 -44
-144 -64 -217 -56 -74 7 -56 -7 28 -23 72 -13 183 -14 190 -2 4 5 0 11 -6 14
-10 4 -10 7 0 18 11 12 14 12 21 0 24 -39 -68 -79 -202 -89 -78 -5 -72 -17 13
-28 45 -6 51 -9 30 -15 -55 -16 -136 -10 -183 15 -26 13 -47 20 -47 17 0 -19
65 -65 107 -77 48 -13 48 -13 13 -15 -114 -7 -167 25 -210 126 -12 28 -38 67
-58 88 l-36 37 22 15 c31 23 43 75 31 147 -9 56 -8 63 16 104 14 24 47 60 73
81 26 21 77 68 115 106 37 37 67 65 67 62 0 -20 -57 -112 -90 -145 -81 -81
-51 -61 163 111 39 32 47 53 22 63 -11 4 -15 -1 -15 -19 0 -19 -5 -23 -25 -21
-14 2 -31 9 -38 16 -9 11 -7 11 8 0 15 -11 14 -8 -4 13 -24 27 -49 38 -35 15
4 -7 3 -8 -5 -4 -6 4 -9 11 -6 16 13 21 -176 116 -285 144 -91 23 -249 29
-335 12z m354 -438 c-18 -36 -20 -52 -15 -115 11 -114 -19 -146 -68 -75 -30
44 -35 106 -11 152 18 34 73 80 98 80 16 0 16 -3 -4 -42z"/>
<path d="M910 1985 c-11 -13 -9 -20 15 -45 49 -52 295 -216 295 -197 0 2 -41
30 -91 62 -114 73 -146 99 -179 152 -24 37 -29 41 -40 28z"/>
<path d="M2155 1941 c-7 -24 -65 -71 -177 -144 -49 -31 -88 -59 -88 -62 0 -4
3 -4 8 -2 4 3 41 26 82 51 95 59 210 148 207 160 -6 19 -25 17 -32 -3z"/>
<path d="M788 1863 c6 -2 12 -11 12 -18 0 -8 15 -18 33 -24 17 -5 103 -37 190
-71 88 -34 161 -60 163 -57 2 2 -51 25 -119 52 -67 26 -157 65 -199 87 -43 21
-81 38 -85 37 -5 0 -2 -3 5 -6z"/>
<path d="M2220 1820 c-8 -5 -77 -35 -153 -66 -75 -31 -136 -59 -134 -61 7 -6
337 123 337 132 0 9 -34 5 -50 -5z"/>
<path d="M755 1713 c0 -24 6 -29 60 -46 55 -16 260 -38 345 -36 l35 1 -30 8
c-16 4 -64 8 -105 9 -93 1 -178 23 -247 61 -29 17 -54 30 -56 30 -2 0 -3 -12
-2 -27z"/>
<path d="M2274 1696 c-25 -19 -7 -40 28 -31 19 5 24 12 21 26 -6 23 -22 24
-49 5z"/>
<path d="M2180 1665 c-25 -8 -74 -14 -110 -15 -36 -1 -83 -5 -105 -10 -29 -7
-13 -8 60 -4 175 8 236 15 232 28 -5 15 -25 16 -77 1z"/>
<path d="M2310 1600 c-28 -21 -22 -33 15 -35 25 -1 33 17 17 42 -5 8 -14 7
-32 -7z"/>
<path d="M2225 1557 c-38 -14 -70 -18 -137 -15 -100 3 -103 -9 -5 -20 62 -8
182 -1 193 11 3 3 4 14 2 24 -3 18 -4 18 -53 0z"/>
<path d="M880 1362 c0 -48 7 -90 21 -127 11 -30 22 -75 23 -99 3 -53 34 -98
109 -158 29 -22 52 -46 52 -52 0 -28 111 -34 197 -10 32 9 58 19 58 23 0 3
-42 6 -93 6 -77 1 -99 4 -137 24 -61 32 -98 64 -142 123 -50 66 -48 83 2 30
41 -43 107 -85 150 -97 14 -3 2 7 -26 24 -96 56 -165 167 -188 300 -15 94 -26
99 -26 13z"/>
<path d="M920 1380 c0 -30 66 -144 112 -195 142 -155 363 -192 461 -76 38 46
43 74 20 118 -16 32 -112 113 -132 113 -3 0 -14 -14 -23 -31 -26 -44 -97 -73
-162 -65 -47 5 -49 5 -33 -12 13 -12 34 -17 76 -17 49 1 64 5 101 33 24 18 52
32 61 32 9 0 33 -18 54 -41 30 -33 35 -46 30 -67 -16 -65 -72 -95 -170 -90
-97 5 -187 49 -260 131 -61 67 -85 117 -57 117 10 0 22 -8 29 -18 28 -45 141
-69 195 -41 26 13 78 60 78 70 0 3 -21 -4 -47 -17 -36 -19 -62 -24 -117 -24
-39 0 -78 5 -86 10 -11 7 -3 10 30 10 25 1 59 7 75 15 30 13 29 13 -30 14 -53
1 -110 12 -182 35 -15 5 -23 3 -23 -4z"/>
<path d="M1740 1131 c18 -35 12 -105 -15 -155 -31 -58 -12 -56 30 2 17 22 34
41 38 41 5 1 18 -9 29 -21 l19 -23 -5 42 c-3 23 -11 54 -17 70 l-12 28 -7 -33
c-11 -49 -20 -51 -20 -5 0 26 -6 46 -18 56 -25 23 -35 21 -22 -2z"/>
<path d="M1691 1037 c-17 -57 -54 -103 -101 -127 -56 -28 -60 -25 -16 12 34
28 74 93 63 104 -2 2 -17 -16 -34 -39 -16 -24 -51 -57 -77 -74 -47 -31 -173
-80 -182 -70 -3 2 20 16 50 31 52 25 126 96 126 120 0 6 -14 -6 -30 -26 -18
-21 -59 -51 -97 -70 -57 -28 -77 -32 -137 -32 -39 0 -95 8 -125 17 -47 15 -52
15 -40 1 33 -40 89 -53 239 -55 95 -2 110 0 161 24 31 15 69 27 85 27 61 0
144 88 144 152 0 45 -15 48 -29 5z"/>
<path d="M375 402 c-39 -8 -55 -33 -55 -84 0 -81 8 -85 198 -84 137 1 163 4
180 19 18 16 20 16 44 -3 19 -15 35 -18 64 -14 22 3 46 6 54 5 8 0 33 0 55 0
22 1 50 1 63 0 36 -2 82 -3 167 -2 64 1 141 -3 175 -9 3 0 -3 -5 -12 -11 -23
-13 -23 -62 -2 -84 14 -13 34 -15 128 -10 61 2 118 4 126 4 8 -1 78 -2 155 -3
95 -1 151 -6 174 -15 27 -12 37 -12 54 -1 16 9 85 12 285 12 167 -1 272 3 284
9 11 6 27 7 36 3 27 -11 185 -13 205 -3 20 11 23 59 5 77 -9 9 -7 19 6 45 18
31 18 34 0 71 -35 73 -61 81 -249 76 -11 -1 -32 -12 -46 -26 l-27 -25 -25 25
c-23 23 -32 25 -113 25 -49 -1 -95 -6 -102 -11 -9 -8 -19 -8 -35 0 -18 9 -392
10 -792 3 -11 0 -87 0 -170 0 -82 1 -157 1 -165 1 -8 0 -67 0 -130 0 -63 0
-122 0 -130 -1 -45 -3 -368 6 -376 10 -5 3 -18 4 -29 1z m35 -42 c0 -5 -10
-10 -21 -10 -21 0 -21 -1 5 -25 22 -21 25 -28 16 -45 -11 -21 -36 -26 -59 -11
-20 13 -5 30 22 25 l22 -5 -22 17 c-22 16 -30 44 -16 57 10 11 53 8 53 -3z
m40 -46 c0 -72 -21 -69 -24 4 -1 36 2 52 11 52 9 0 13 -17 13 -56z m93 3 c20
-49 16 -76 -7 -44 -17 22 -42 22 -55 0 -19 -35 -23 -3 -5 47 23 63 41 62 67
-3z m67 36 c0 -10 5 -25 10 -33 7 -12 11 -8 16 18 5 22 12 32 25 32 16 0 19
-8 19 -55 0 -61 -20 -77 -21 -17 l-1 37 -12 -35 c-7 -19 -16 -35 -21 -35 -5 0
-14 16 -21 35 l-12 35 -1 -37 c-1 -60 -21 -44 -21 17 0 48 2 55 20 55 12 0 20
-7 20 -17z m151 -20 l12 -38 12 35 c6 19 19 36 28 38 14 3 13 -5 -8 -50 -13
-29 -29 -54 -33 -56 -8 -2 -17 16 -49 96 -3 6 2 12 10 12 9 0 21 -16 28 -37z
m131 -16 c21 -48 17 -76 -6 -44 -16 21 -45 22 -52 2 -4 -8 -13 -15 -21 -15 -8
0 -13 4 -11 8 2 4 12 29 23 55 11 27 26 46 33 45 8 -2 23 -24 34 -51z m39 31
l12 -22 8 22 c6 16 17 22 39 22 28 0 30 -2 30 -41 0 -33 3 -40 18 -37 12 3 17
13 17 41 0 23 5 37 13 37 8 0 12 -16 12 -45 0 -43 -16 -65 -49 -65 -21 0 -41
33 -41 68 l0 37 -20 -30 c-11 -16 -20 -40 -20 -52 0 -13 -4 -23 -10 -23 -5 0
-10 10 -10 23 0 12 -9 37 -20 55 -16 25 -17 32 -5 32 8 0 20 -10 26 -22z m237
-5 c2 -16 -4 -26 -22 -35 -14 -6 -26 -19 -26 -30 0 -10 -7 -18 -15 -18 -12 0
-15 13 -15 56 l0 55 38 -3 c30 -2 38 -7 40 -25z m76 -23 c18 -50 14 -82 -5
-47 -12 21 -45 22 -53 2 -6 -16 -26 -21 -26 -6 0 21 42 101 53 101 7 0 21 -23
31 -50z m50 35 c-4 -8 -2 -15 4 -15 5 0 12 7 16 15 3 8 13 15 22 15 15 0 15
-2 -1 -26 -16 -25 -16 -28 4 -55 17 -23 19 -29 6 -29 -8 0 -20 9 -27 20 -15
24 -30 26 -26 4 2 -10 -3 -19 -9 -21 -10 -3 -13 11 -13 51 0 43 4 56 15 56 9
0 12 -6 9 -15z m166 5 c0 -5 -9 -10 -20 -10 -11 0 -20 -4 -20 -9 0 -5 9 -13
20 -16 25 -8 27 -50 4 -59 -20 -8 -54 2 -54 15 0 5 12 9 28 9 l27 0 -28 23
c-36 28 -28 57 14 57 16 0 29 -4 29 -10z m104 -6 c41 -40 -7 -109 -59 -86 -29
13 -41 52 -25 81 13 25 61 28 84 5z m216 -1 c0 -10 5 -25 10 -33 7 -12 11 -8
16 18 8 40 33 42 40 2 7 -32 24 -32 24 0 0 19 17 36 26 27 10 -10 -23 -102
-36 -102 -8 0 -18 16 -24 35 l-10 35 -10 -37 c-13 -51 -33 -48 -47 7 -8 33
-16 45 -30 45 -16 0 -19 -8 -19 -45 0 -33 -4 -45 -15 -45 -11 0 -15 12 -15 45
l0 45 -40 0 c-22 0 -40 -4 -40 -10 0 -5 11 -10 25 -10 14 0 25 -4 25 -10 0 -5
-12 -10 -26 -10 -20 0 -25 -4 -22 -22 2 -11 -3 -23 -9 -25 -10 -3 -13 11 -13
51 l0 56 95 0 c84 0 95 -2 95 -17z m197 -30 l21 -48 1 48 c1 45 2 47 30 47 38
0 56 -22 41 -50 -9 -16 -8 -25 1 -36 6 -8 9 -18 5 -22 -4 -4 -16 3 -26 16 -23
27 -30 28 -23 2 4 -17 0 -20 -25 -20 -17 0 -32 6 -36 15 -3 8 -14 15 -25 15
-10 0 -21 -7 -25 -15 -9 -24 -28 -18 -20 7 17 53 35 88 47 88 7 0 23 -21 34
-47z m183 37 c0 -5 -11 -10 -25 -10 -14 0 -25 -4 -25 -10 0 -5 11 -10 25 -10
14 0 25 -4 25 -10 0 -5 -11 -10 -25 -10 -14 0 -25 -4 -25 -10 0 -5 11 -10 25
-10 16 0 25 -6 25 -15 0 -10 -11 -15 -35 -15 l-35 0 0 55 0 55 35 0 c19 0 35
-4 35 -10z m130 -5 c-3 -5 -15 -9 -26 -7 -26 3 -47 -20 -38 -43 5 -12 14 -15
35 -11 37 7 47 -11 15 -25 -52 -24 -103 50 -64 89 15 15 85 12 78 -3z m108 3
c22 -22 14 -66 -14 -85 -24 -15 -29 -15 -53 -2 -31 17 -39 59 -16 83 19 19 66
21 83 4z m112 -28 c0 -33 3 -40 20 -40 11 0 20 -7 20 -15 0 -10 -10 -15 -30
-15 -30 0 -30 1 -30 55 0 30 5 55 10 55 6 0 10 -18 10 -40z m110 30 c0 -5 -7
-10 -15 -10 -11 0 -15 -12 -15 -45 0 -25 -4 -45 -10 -45 -5 0 -10 20 -10 45 0
38 -3 45 -20 45 -11 0 -20 5 -20 10 0 6 20 10 45 10 25 0 45 -4 45 -10z m95
-10 c35 -38 -3 -90 -66 -90 -16 0 -19 7 -19 55 l0 55 33 0 c21 0 41 -8 52 -20z
m-1030 -100 c24 -26 16 -33 -29 -24 -35 6 -36 7 -20 25 21 24 27 24 49 -1z
m81 -4 c21 -21 18 -26 -16 -26 -40 0 -41 30 -2 39 2 1 10 -5 18 -13z m-176
-14 c0 -4 -9 -13 -19 -19 -15 -10 -20 -9 -24 1 -3 8 -3 17 0 20 9 9 43 7 43
-2z m702 -39 c-5 -55 -9 -61 -20 -33 -10 24 -11 24 -11 3 -1 -25 -21 -33 -21
-9 0 8 -3 22 -6 31 -5 13 -1 15 20 11 21 -4 26 -1 26 15 0 10 4 19 8 19 4 0 6
-17 4 -37z m294 22 c-4 -11 1 -15 19 -15 22 0 25 -4 24 -32 -2 -31 -2 -31 -6
-5 -5 34 -33 36 -33 2 0 -31 -14 -32 -34 -3 -20 28 -20 38 -1 38 8 0 14 3 14
8 -3 15 1 22 12 22 6 0 9 -7 5 -15z m-905 -15 c38 0 39 -1 38 -32 -2 -31 -2
-31 -6 -5 -5 34 -33 36 -33 2 0 -20 -5 -25 -26 -25 -21 0 -25 4 -21 19 2 10 1
25 -4 32 -6 10 -9 3 -10 -21 -1 -19 -3 -27 -6 -17 -2 9 -8 17 -13 17 -5 0 -7
-7 -4 -15 4 -8 1 -15 -6 -15 -17 0 -8 54 10 62 8 4 21 5 28 2 8 -2 31 -4 53
-4z m486 -22 c-2 -23 -7 -34 -21 -36 -15 -3 -18 1 -14 22 3 14 1 23 -3 20 -5
-3 -9 -1 -9 5 0 5 10 12 23 14 12 2 23 5 24 6 1 0 1 -14 0 -31z m-837 -3 c0
-34 18 -32 23 3 4 25 4 25 6 -5 1 -27 -3 -33 -19 -33 -13 0 -20 7 -20 18 0 10
-5 23 -12 30 -9 9 -8 12 5 12 11 0 17 -8 17 -25z m78 -5 c2 -29 -10 -40 -23
-20 -3 6 -1 10 4 10 6 0 11 5 11 10 0 6 -7 10 -15 10 -8 0 -15 5 -15 10 0 6 8
10 18 10 13 0 18 -9 20 -30z m36 18 c5 -10 7 -10 12 1 9 19 23 -6 17 -30 -6
-22 -43 -26 -43 -5 0 8 -3 21 -6 30 -7 19 12 22 20 4z m96 -19 c0 -34 -19 -40
-21 -6 l-2 22 -4 -22 c-5 -25 -23 -32 -23 -9 0 8 -2 21 -5 29 -4 10 2 14 25
15 27 1 30 -2 30 -29z m215 9 l7 -23 8 25 c8 24 8 24 9 -6 1 -27 -3 -31 -23
-31 -21 0 -24 4 -24 28 1 35 13 38 23 7z m114 -10 c-2 -31 -2 -31 -6 -5 -5 34
-33 36 -33 2 0 -25 -14 -33 -25 -15 -3 6 -1 10 4 10 18 0 12 28 -6 33 -10 3 1
5 25 6 41 1 42 0 41 -31z m61 10 c0 -12 3 -18 8 -14 4 4 7 13 7 19 0 7 9 12
20 12 14 0 21 -8 23 -27 2 -16 -1 -28 -6 -28 -5 0 -7 11 -4 25 2 15 0 25 -7
25 -6 0 -11 -12 -11 -26 0 -21 -3 -24 -21 -19 -18 6 -20 4 -14 -15 5 -17 4
-21 -6 -17 -8 2 -13 10 -11 16 1 6 -5 11 -13 11 -10 0 -15 10 -15 30 0 25 4
30 25 30 19 0 25 -5 25 -22z m153 8 c5 -8 10 -6 17 4 7 11 10 7 10 -18 0 -29
-3 -33 -22 -30 -15 2 -22 9 -20 20 1 9 -2 19 -8 23 -6 4 -10 -4 -10 -19 0 -35
-20 -33 -21 2 l-2 27 -4 -27 c-6 -37 -23 -36 -23 2 0 28 2 29 38 28 20 -1 40
-6 45 -12z m137 -16 c0 -23 -4 -30 -20 -30 -13 0 -20 7 -20 20 0 11 5 20 11
20 6 0 9 -7 5 -15 -3 -8 -1 -15 4 -15 18 0 11 38 -7 43 -14 4 -12 5 5 6 18 1
22 -4 22 -29z m129 -2 c0 -26 -2 -29 -8 -14 -7 19 -8 19 -15 0 -8 -18 -9 -18
-17 4 -11 29 -4 42 22 42 15 0 19 -7 18 -32z m32 10 l2 -23 4 23 c4 18 11 22
39 22 31 0 34 -2 34 -30 0 -20 -5 -30 -15 -30 -17 0 -20 16 -5 25 15 9 2 25
-21 25 -20 0 -26 -15 -9 -25 20 -12 9 -26 -17 -23 -22 2 -29 9 -31 31 -2 15 1
27 7 27 6 0 12 -10 12 -22z m125 -5 c-1 -14 -7 -28 -15 -31 -9 -3 -11 2 -6 17
4 12 2 21 -4 21 -6 0 -11 5 -11 10 0 6 8 10 19 10 13 0 18 -7 17 -27z m182 -5
c2 -16 -1 -28 -7 -28 -6 0 -12 12 -12 28 l-2 27 -4 -27 c-6 -38 -23 -35 -23 3
0 26 3 30 23 27 16 -2 23 -11 25 -30z m62 2 c0 -16 -5 -30 -11 -30 -6 0 -9 6
-6 13 3 8 -1 14 -8 14 -7 0 -11 -6 -8 -14 3 -7 0 -13 -6 -13 -6 0 -11 14 -11
30 0 25 4 30 25 30 21 0 25 -5 25 -30z"/>
<path d="M1507 343 c-4 -3 -7 -17 -7 -30 0 -18 6 -23 24 -23 28 0 37 17 24 43
-9 17 -29 23 -41 10z"/>
<path d="M2332 333 c-13 -26 -4 -43 23 -43 27 0 40 26 24 46 -16 19 -37 17
-47 -3z"/>
<path d="M2660 320 c0 -25 4 -31 18 -28 11 2 17 12 17 28 0 16 -6 26 -17 28
-14 3 -18 -3 -18 -28z"/>
</g>
</svg>
